<svg width="151" height="48" viewBox="0 0 151 48" fill="none" xmlns="http://www.w3.org/2000/svg">
<path d="M11.6191 29.472C12.9791 29.472 14.5317 29.3247 16.2771 29.03C18.0451 28.7353 19.6544 28.214 21.1051 27.466C22.8731 26.514 23.8931 25.4147 24.1651 24.168C24.3011 23.556 24.3691 22.8873 24.3691 22.162C24.3691 21.3687 24.2897 20.5073 24.1311 19.578C24.0857 19.3287 23.9837 19.1473 23.8251 19.034C23.6664 18.898 23.4964 18.83 23.3151 18.83C22.9977 18.83 22.7711 18.932 22.6351 19.136C22.4991 19.3173 22.4311 19.51 22.4311 19.714V19.816C22.6124 20.768 22.7031 21.5727 22.7031 22.23C22.7031 22.706 22.6351 23.2727 22.4991 23.93C22.3857 24.5647 21.6604 25.2447 20.3231 25.97C19.0537 26.6273 17.4444 27.126 15.4951 27.466C14.1804 27.6927 12.8657 27.806 11.5511 27.806C10.9164 27.806 9.95308 27.7493 8.66108 27.636C7.39175 27.5453 6.13374 27.092 4.88708 26.276C4.00308 25.6187 3.56108 24.8707 3.56108 24.032C3.56108 23.3293 3.75374 22.6267 4.13908 21.924C4.70574 20.8133 4.98908 20.0427 4.98908 19.612C4.98908 19.272 4.87574 19.102 4.64908 19.102C4.49041 19.102 4.20708 19.2607 3.79908 19.578C3.41374 19.8727 2.98308 20.496 2.50708 21.448C2.07641 22.3093 1.86108 23.1593 1.86108 23.998C1.86108 24.2473 1.90641 24.712 1.99708 25.392C2.08774 26.0493 2.72241 26.8087 3.90108 27.67C5.78241 28.8713 8.35508 29.472 11.6191 29.472ZM14.3051 36.816C14.0557 36.816 13.8291 36.714 13.6251 36.51C13.4437 36.3287 13.3531 36.1133 13.3531 35.864C13.3531 35.592 13.4437 35.354 13.6251 35.15C13.8291 34.9687 14.0557 34.878 14.3051 34.878C14.5771 34.878 14.8037 34.9687 14.9851 35.15C15.1891 35.354 15.2911 35.592 15.2911 35.864C15.2911 36.1133 15.1891 36.3287 14.9851 36.51C14.8037 36.714 14.5771 36.816 14.3051 36.816ZM10.8711 34.062L14.2371 33.688C16.4811 33.3933 17.6031 33.0647 17.6031 32.702C17.6031 32.43 17.1044 32.294 16.1071 32.294C15.5857 32.294 14.9284 32.328 14.1351 32.396L10.8031 32.736C10.5991 32.7813 10.4404 32.8607 10.3271 32.974C10.2137 33.11 10.1571 33.2573 10.1571 33.416V33.484C10.2477 33.8693 10.4857 34.062 10.8711 34.062ZM29.863 27.5V25.8H29.727C28.707 25.596 28.1517 24.814 28.061 23.454L28.027 22.4C28.027 21.38 28.163 20.224 28.435 18.932C28.7977 17.232 29.0357 16.2687 29.149 16.042C29.353 15.1807 29.455 14.5007 29.455 14.002C29.455 13.3447 29.2963 13.016 28.979 13.016C28.5483 13.016 28.061 13.8773 27.517 15.6C27.177 16.6427 26.837 18.0933 26.497 19.952C26.3383 20.768 26.259 21.5613 26.259 22.332C26.259 23.216 26.395 24.236 26.667 25.392C26.9617 26.548 27.9817 27.2507 29.727 27.5H29.863ZM29.9594 27.5C31.0474 27.5 31.8748 27.2393 32.4414 26.718C33.0081 26.1967 33.5181 25.494 33.9714 24.61C34.3794 24.9727 34.8101 25.154 35.2634 25.154C35.8528 25.154 36.4648 24.8027 37.0994 24.1L37.3374 23.726L37.3714 23.794C37.3941 23.862 37.4848 24.0093 37.6434 24.236C37.9381 24.6667 38.3121 24.9727 38.7654 25.154C38.9468 25.2447 39.1394 25.29 39.3434 25.29C39.6154 25.29 39.9101 25.1993 40.2274 25.018C40.8168 24.6553 41.2588 24.0773 41.5534 23.284C41.8254 22.5813 41.9614 21.9353 41.9614 21.346C41.9614 20.9607 41.8708 20.7 41.6894 20.564C41.5308 20.4053 41.3494 20.326 41.1454 20.326C40.8734 20.326 40.6581 20.4167 40.4994 20.598C40.3408 20.7793 40.2614 20.9833 40.2614 21.21V21.414C40.2614 21.6633 40.2161 21.958 40.1254 22.298C40.0348 22.6153 39.8988 22.91 39.7174 23.182C39.5588 23.4313 39.4228 23.556 39.3094 23.556C39.1961 23.556 39.0488 23.3747 38.8674 23.012C38.3914 22.1733 37.8928 21.754 37.3714 21.754C36.8728 21.754 36.3628 22.1507 35.8414 22.944C35.6601 23.2613 35.4788 23.42 35.2974 23.42C35.2521 23.42 35.1728 23.4087 35.0594 23.386C34.9688 23.3407 34.8328 23.1253 34.6514 22.74C34.5608 22.5813 34.4474 22.468 34.3114 22.4C34.1981 22.2867 34.0281 22.23 33.8014 22.23C33.7108 22.23 33.5748 22.264 33.3934 22.332C33.2121 22.3773 33.0534 22.5813 32.9174 22.944C32.5548 23.896 32.0561 24.6667 31.4214 25.256C31.0134 25.6187 30.4808 25.8 29.8234 25.8C29.6648 26.0267 29.5854 26.31 29.5854 26.65C29.5854 26.99 29.6648 27.2733 29.8234 27.5H29.9594ZM36.2834 15.702C36.0114 15.702 35.7848 15.6113 35.6034 15.43C35.4221 15.226 35.3314 14.9993 35.3314 14.75C35.3314 14.478 35.4221 14.2513 35.6034 14.07C35.7848 13.866 36.0114 13.764 36.2834 13.764C36.5554 13.764 36.7821 13.866 36.9634 14.07C37.1448 14.2513 37.2354 14.478 37.2354 14.75C37.2354 14.9993 37.1448 15.226 36.9634 15.43C36.7821 15.6113 36.5554 15.702 36.2834 15.702ZM35.0594 17.844C35.8074 17.844 36.8954 17.742 38.3234 17.538C38.4821 17.5153 38.5954 17.4247 38.6634 17.266C38.7541 17.1073 38.7994 16.9487 38.7994 16.79C38.7994 16.4953 38.7428 16.28 38.6294 16.144C38.5161 16.008 38.3914 15.94 38.2554 15.94H38.1874C35.2861 16.5067 33.8354 17.0167 33.8354 17.47C33.8354 17.7193 34.2434 17.844 35.0594 17.844ZM51.6028 34.504C53.0988 34.504 54.7535 34.1753 56.5668 33.518C58.3801 32.8833 59.9328 31.9653 61.2248 30.764C62.6528 29.2907 63.4235 27.6813 63.5368 25.936C63.5821 25.4147 63.6048 24.8933 63.6048 24.372C63.6048 23.1253 63.4915 21.8447 63.2648 20.53C63.2195 20.258 63.1741 19.986 63.1288 19.714C63.1061 19.442 63.0041 19.2493 62.8228 19.136C62.6641 19 62.4828 18.932 62.2788 18.932C62.0295 18.932 61.8141 19.0453 61.6328 19.272C61.5195 19.4307 61.4628 19.6007 61.4628 19.782L61.5988 20.904C61.8255 22.128 61.9388 23.352 61.9388 24.576C61.9388 24.8933 61.9048 25.5053 61.8368 26.412C61.7915 27.3187 61.2021 28.3613 60.0688 29.54C58.9355 30.5827 57.5075 31.41 55.7848 32.022C54.3115 32.5433 52.9175 32.804 51.6028 32.804L50.8888 32.77C49.2341 32.566 48.2708 31.9653 47.9988 30.968C47.9081 30.6507 47.8628 30.3333 47.8628 30.016C47.8628 29.2227 48.0895 28.3387 48.5428 27.364C49.7895 24.3493 50.4128 22.468 50.4128 21.72C50.4128 21.4253 50.3561 21.278 50.2428 21.278C49.6535 21.278 48.5655 23.0913 46.9788 26.718C46.4575 27.9193 46.1968 29.03 46.1968 30.05C46.1968 30.6847 46.3781 31.5007 46.7408 32.498C47.1261 33.518 48.4521 34.1753 50.7188 34.47L51.6028 34.504ZM55.3768 24.848C55.1275 24.848 54.9008 24.7573 54.6968 24.576C54.5155 24.372 54.4248 24.1453 54.4248 23.896C54.4248 23.624 54.5155 23.3973 54.6968 23.216C54.9008 23.012 55.1275 22.91 55.3768 22.91C55.6488 22.91 55.8755 23.012 56.0568 23.216C56.2608 23.3973 56.3628 23.624 56.3628 23.896C56.3628 24.1453 56.2608 24.372 56.0568 24.576C55.8755 24.7573 55.6488 24.848 55.3768 24.848ZM69.0095 27.5V25.8H68.8735C67.8535 25.596 67.2982 24.814 67.2075 23.454L67.1735 22.4C67.1735 21.38 67.3095 20.224 67.5815 18.932C67.9442 17.232 68.1822 16.2687 68.2955 16.042C68.4995 15.1807 68.6015 14.5007 68.6015 14.002C68.6015 13.3447 68.4428 13.016 68.1255 13.016C67.6948 13.016 67.2075 13.8773 66.6635 15.6C66.3235 16.6427 65.9835 18.0933 65.6435 19.952C65.4848 20.768 65.4055 21.5613 65.4055 22.332C65.4055 23.216 65.5415 24.236 65.8135 25.392C66.1082 26.548 67.1282 27.2507 68.8735 27.5H69.0095ZM74.7499 25.8C74.6592 25.8 74.5686 25.7547 74.4779 25.664C74.2739 25.4827 74.1719 25.3013 74.1719 25.12C74.1719 24.8707 74.3079 24.5987 74.5799 24.304C74.8746 24.0093 75.1012 23.8053 75.2599 23.692C75.2826 23.8507 75.2939 24.032 75.2939 24.236C75.2939 24.5307 75.2486 24.8707 75.1579 25.256C75.0899 25.6187 74.9539 25.8 74.7499 25.8ZM69.1399 27.5C70.8172 27.4773 72.0412 27.0693 72.8119 26.276C73.2652 27.0693 73.9226 27.466 74.7839 27.466L75.2599 27.432C76.4386 27.0013 77.0279 25.9473 77.0279 24.27C77.0279 23.8847 76.9712 23.5107 76.8579 23.148C76.5632 22.332 76.1099 21.924 75.4979 21.924C74.5912 21.924 73.7412 22.502 72.9479 23.658C72.5626 24.202 72.0752 24.7007 71.4859 25.154C70.9192 25.5847 70.0692 25.8 68.9359 25.8C68.8679 26.0267 68.8339 26.31 68.8339 26.65C68.8339 26.99 68.8679 27.2733 68.9359 27.5H69.1399ZM80.5647 23.624C79.6354 25.528 78.7627 27.1033 77.9467 28.35C77.4027 29.1433 76.768 29.9593 76.0427 30.798C74.6147 32.498 74.082 33.5067 74.4447 33.824C74.7847 34.1413 75.5554 33.7107 76.7567 32.532C77.7994 31.4213 78.6607 30.3447 79.3407 29.302C80.2247 27.9647 81.1314 26.3327 82.0607 24.406C82.174 24.1793 82.1967 23.964 82.1287 23.76C82.0607 23.5333 81.9134 23.3633 81.6867 23.25C81.4827 23.1593 81.2674 23.148 81.0407 23.216C80.8367 23.284 80.678 23.42 80.5647 23.624ZM83.6704 27.466C84.1917 27.466 84.7131 26.786 85.2344 25.426C85.7784 24.066 86.0957 22.6833 86.1864 21.278C86.2317 20.4847 86.2544 19.68 86.2544 18.864C86.2544 18.252 86.2431 17.6173 86.2204 16.96C86.1977 16.3027 86.1864 15.6113 86.1864 14.886C86.1864 14.6593 86.1071 14.4667 85.9484 14.308C85.7897 14.1493 85.5857 14.07 85.3364 14.07C85.1097 14.07 84.9171 14.1493 84.7584 14.308C84.5997 14.4667 84.5204 14.6593 84.5204 14.886L84.5544 16.926L84.5884 18.49C84.5884 19.2833 84.5544 20.2013 84.4864 21.244C84.4411 22.264 84.2031 23.3973 83.7724 24.644C83.4324 25.6187 83.2624 26.3327 83.2624 26.786C83.2624 26.922 83.2737 27.0353 83.2964 27.126C83.3644 27.3527 83.4891 27.466 83.6704 27.466ZM82.5824 12.506C82.9451 12.506 83.4211 12.1093 84.0104 11.316C84.3504 10.7947 84.6791 10.534 84.9964 10.534C85.2457 10.534 85.5971 10.6133 86.0504 10.772C86.7984 11.0667 87.5011 11.214 88.1584 11.214C89.1104 11.214 89.8697 10.7833 90.4364 9.922C91.0031 9.06067 91.3317 7.916 91.4224 6.488V6.386C91.4224 6.182 91.3431 6.00067 91.1844 5.842C91.0484 5.66067 90.8444 5.57 90.5724 5.57C90.3684 5.57 90.1871 5.638 90.0284 5.774C89.8697 5.91 89.7791 6.09133 89.7564 6.318C89.7111 6.83933 89.6317 7.372 89.5184 7.916C89.2691 8.98133 88.7591 9.514 87.9884 9.514C87.6937 9.514 87.1611 9.38933 86.3904 9.14C85.6424 8.868 85.0417 8.732 84.5884 8.732C84.4297 8.732 84.1917 8.766 83.8744 8.834C83.5797 8.87933 83.1377 9.42333 82.5484 10.466C82.2311 11.0553 82.0724 11.52 82.0724 11.86C82.0724 12.1093 82.1404 12.2793 82.2764 12.37C82.3897 12.4607 82.4917 12.506 82.5824 12.506Z" fill="#C86628"/>
<path opacity="0.4" d="M144.42 35.04C143.68 37.48 142.22 39.36 140.14 40.52C140.06 40.2 140.02 39.86 140.02 39.52C140.02 37.08 142 35.08 144.42 35.04Z" fill="#9A4814"/>
<path d="M145 15.04V19.894C145 20.4165 144.597 20.8479 144.081 20.9308C143.775 20.98 143.458 21.0431 143.16 21.12L137.26 22.76C134.14 23.56 132.06 26.26 132.06 29.48V33.3849C132.06 33.8595 131.723 34.261 131.274 34.4157C128.575 35.3468 126.546 38.0544 126.165 41.0027C126.094 41.5504 125.652 42 125.1 42H118.04C111.14 42 107 37.88 107 30.96V15.04C107 8.12 111.14 4 118.04 4H133.96C140.86 4 145 8.12 145 15.04Z" fill="#9A4814"/>
<path d="M147.62 24.5C147.1 24.12 146.26 23.72 145 23.84C144.68 23.86 144.34 23.92 143.96 24.02L138 25.66C136.22 26.12 135.06 27.62 135.06 29.48V37.3C134.6 37.14 134.1 37.04 133.58 37.04C131.1 37.04 129.08 39.04 129.08 41.52C129.08 41.68 129.08 41.84 129.1 42C129.34 44.24 131.26 46 133.58 46C136.02 46 138 44.02 138.04 41.6C138.04 41.56 138.06 41.54 138.06 41.52V34.14L144.96 32.24L146 31.96V35.32C145.54 35.16 145.04 35.04 144.5 35.04H144.42C142 35.08 140.02 37.08 140.02 39.52C140.02 39.86 140.06 40.2 140.14 40.52C140.6 42.52 142.38 44.02 144.5 44.02C146.96 44.02 148.94 42.04 148.98 39.6C148.98 39.58 149 39.56 149 39.52V27.86C149 26.34 148.54 25.22 147.62 24.5ZM133.58 43C132.92 43 132.36 42.58 132.18 42C132.1 41.86 132.08 41.68 132.08 41.52C132.08 40.7 132.76 40.04 133.58 40.04C134.38 40.04 135.06 40.7 135.06 41.52C135.06 41.68 135.04 41.82 134.98 41.96C134.8 42.56 134.24 43 133.58 43ZM144.5 41.02C143.7 41.02 143.02 40.34 143.02 39.52C143.02 38.72 143.7 38.04 144.5 38.04C145.32 38.04 146 38.72 146 39.52C146 40.34 145.32 41.02 144.5 41.02Z" fill="#C86628"/>
</svg>
