<svg width="91" height="32" viewBox="0 0 91 32" fill="none" xmlns="http://www.w3.org/2000/svg">
<path d="M10.6191 24.472C11.9791 24.472 13.5317 24.3247 15.2771 24.03C17.0451 23.7353 18.6544 23.214 20.1051 22.466C21.8731 21.514 22.8931 20.4147 23.1651 19.168C23.3011 18.556 23.3691 17.8873 23.3691 17.162C23.3691 16.3687 23.2897 15.5073 23.1311 14.578C23.0857 14.3287 22.9837 14.1473 22.8251 14.034C22.6664 13.898 22.4964 13.83 22.3151 13.83C21.9977 13.83 21.7711 13.932 21.6351 14.136C21.4991 14.3173 21.4311 14.51 21.4311 14.714V14.816C21.6124 15.768 21.7031 16.5727 21.7031 17.23C21.7031 17.706 21.6351 18.2727 21.4991 18.93C21.3857 19.5647 20.6604 20.2447 19.3231 20.97C18.0537 21.6273 16.4444 22.126 14.4951 22.466C13.1804 22.6927 11.8657 22.806 10.5511 22.806C9.91641 22.806 8.95308 22.7493 7.66108 22.636C6.39175 22.5453 5.13374 22.092 3.88708 21.276C3.00308 20.6187 2.56108 19.8707 2.56108 19.032C2.56108 18.3293 2.75374 17.6267 3.13908 16.924C3.70574 15.8133 3.98908 15.0427 3.98908 14.612C3.98908 14.272 3.87574 14.102 3.64908 14.102C3.49041 14.102 3.20708 14.2607 2.79908 14.578C2.41374 14.8727 1.98308 15.496 1.50708 16.448C1.07641 17.3093 0.861078 18.1593 0.861078 18.998C0.861078 19.2473 0.906412 19.712 0.997078 20.392C1.08774 21.0493 1.72241 21.8087 2.90108 22.67C4.78241 23.8713 7.35508 24.472 10.6191 24.472ZM13.3051 31.816C13.0557 31.816 12.8291 31.714 12.6251 31.51C12.4437 31.3287 12.3531 31.1133 12.3531 30.864C12.3531 30.592 12.4437 30.354 12.6251 30.15C12.8291 29.9687 13.0557 29.878 13.3051 29.878C13.5771 29.878 13.8037 29.9687 13.9851 30.15C14.1891 30.354 14.2911 30.592 14.2911 30.864C14.2911 31.1133 14.1891 31.3287 13.9851 31.51C13.8037 31.714 13.5771 31.816 13.3051 31.816ZM9.87108 29.062L13.2371 28.688C15.4811 28.3933 16.6031 28.0647 16.6031 27.702C16.6031 27.43 16.1044 27.294 15.1071 27.294C14.5857 27.294 13.9284 27.328 13.1351 27.396L9.80308 27.736C9.59908 27.7813 9.44041 27.8607 9.32708 27.974C9.21375 28.11 9.15708 28.2573 9.15708 28.416V28.484C9.24775 28.8693 9.48575 29.062 9.87108 29.062ZM28.863 22.5V20.8H28.727C27.707 20.596 27.1517 19.814 27.061 18.454L27.027 17.4C27.027 16.38 27.163 15.224 27.435 13.932C27.7977 12.232 28.0357 11.2687 28.149 11.042C28.353 10.1807 28.455 9.50067 28.455 9.002C28.455 8.34467 28.2963 8.016 27.979 8.016C27.5483 8.016 27.061 8.87733 26.517 10.6C26.177 11.6427 25.837 13.0933 25.497 14.952C25.3383 15.768 25.259 16.5613 25.259 17.332C25.259 18.216 25.395 19.236 25.667 20.392C25.9617 21.548 26.9817 22.2507 28.727 22.5H28.863ZM28.9594 22.5C30.0474 22.5 30.8748 22.2393 31.4414 21.718C32.0081 21.1967 32.5181 20.494 32.9714 19.61C33.3794 19.9727 33.8101 20.154 34.2634 20.154C34.8528 20.154 35.4648 19.8027 36.0994 19.1L36.3374 18.726L36.3714 18.794C36.3941 18.862 36.4848 19.0093 36.6434 19.236C36.9381 19.6667 37.3121 19.9727 37.7654 20.154C37.9468 20.2447 38.1394 20.29 38.3434 20.29C38.6154 20.29 38.9101 20.1993 39.2274 20.018C39.8168 19.6553 40.2588 19.0773 40.5534 18.284C40.8254 17.5813 40.9614 16.9353 40.9614 16.346C40.9614 15.9607 40.8708 15.7 40.6894 15.564C40.5308 15.4053 40.3494 15.326 40.1454 15.326C39.8734 15.326 39.6581 15.4167 39.4994 15.598C39.3408 15.7793 39.2614 15.9833 39.2614 16.21V16.414C39.2614 16.6633 39.2161 16.958 39.1254 17.298C39.0348 17.6153 38.8988 17.91 38.7174 18.182C38.5588 18.4313 38.4228 18.556 38.3094 18.556C38.1961 18.556 38.0488 18.3747 37.8674 18.012C37.3914 17.1733 36.8928 16.754 36.3714 16.754C35.8728 16.754 35.3628 17.1507 34.8414 17.944C34.6601 18.2613 34.4788 18.42 34.2974 18.42C34.2521 18.42 34.1728 18.4087 34.0594 18.386C33.9688 18.3407 33.8328 18.1253 33.6514 17.74C33.5608 17.5813 33.4474 17.468 33.3114 17.4C33.1981 17.2867 33.0281 17.23 32.8014 17.23C32.7108 17.23 32.5748 17.264 32.3934 17.332C32.2121 17.3773 32.0534 17.5813 31.9174 17.944C31.5548 18.896 31.0561 19.6667 30.4214 20.256C30.0134 20.6187 29.4808 20.8 28.8234 20.8C28.6648 21.0267 28.5854 21.31 28.5854 21.65C28.5854 21.99 28.6648 22.2733 28.8234 22.5H28.9594ZM35.2834 10.702C35.0114 10.702 34.7848 10.6113 34.6034 10.43C34.4221 10.226 34.3314 9.99933 34.3314 9.75C34.3314 9.478 34.4221 9.25133 34.6034 9.07C34.7848 8.866 35.0114 8.764 35.2834 8.764C35.5554 8.764 35.7821 8.866 35.9634 9.07C36.1448 9.25133 36.2354 9.478 36.2354 9.75C36.2354 9.99933 36.1448 10.226 35.9634 10.43C35.7821 10.6113 35.5554 10.702 35.2834 10.702ZM34.0594 12.844C34.8074 12.844 35.8954 12.742 37.3234 12.538C37.4821 12.5153 37.5954 12.4247 37.6634 12.266C37.7541 12.1073 37.7994 11.9487 37.7994 11.79C37.7994 11.4953 37.7428 11.28 37.6294 11.144C37.5161 11.008 37.3914 10.94 37.2554 10.94H37.1874C34.2861 11.5067 32.8354 12.0167 32.8354 12.47C32.8354 12.7193 33.2434 12.844 34.0594 12.844ZM50.6028 29.504C52.0988 29.504 53.7535 29.1753 55.5668 28.518C57.3801 27.8833 58.9328 26.9653 60.2248 25.764C61.6528 24.2907 62.4235 22.6813 62.5368 20.936C62.5821 20.4147 62.6048 19.8933 62.6048 19.372C62.6048 18.1253 62.4915 16.8447 62.2648 15.53C62.2195 15.258 62.1741 14.986 62.1288 14.714C62.1061 14.442 62.0041 14.2493 61.8228 14.136C61.6641 14 61.4828 13.932 61.2788 13.932C61.0295 13.932 60.8141 14.0453 60.6328 14.272C60.5195 14.4307 60.4628 14.6007 60.4628 14.782L60.5988 15.904C60.8255 17.128 60.9388 18.352 60.9388 19.576C60.9388 19.8933 60.9048 20.5053 60.8368 21.412C60.7915 22.3187 60.2021 23.3613 59.0688 24.54C57.9355 25.5827 56.5075 26.41 54.7848 27.022C53.3115 27.5433 51.9175 27.804 50.6028 27.804L49.8888 27.77C48.2341 27.566 47.2708 26.9653 46.9988 25.968C46.9081 25.6507 46.8628 25.3333 46.8628 25.016C46.8628 24.2227 47.0895 23.3387 47.5428 22.364C48.7895 19.3493 49.4128 17.468 49.4128 16.72C49.4128 16.4253 49.3561 16.278 49.2428 16.278C48.6535 16.278 47.5655 18.0913 45.9788 21.718C45.4575 22.9193 45.1968 24.03 45.1968 25.05C45.1968 25.6847 45.3781 26.5007 45.7408 27.498C46.1261 28.518 47.4521 29.1753 49.7188 29.47L50.6028 29.504ZM54.3768 19.848C54.1275 19.848 53.9008 19.7573 53.6968 19.576C53.5155 19.372 53.4248 19.1453 53.4248 18.896C53.4248 18.624 53.5155 18.3973 53.6968 18.216C53.9008 18.012 54.1275 17.91 54.3768 17.91C54.6488 17.91 54.8755 18.012 55.0568 18.216C55.2608 18.3973 55.3628 18.624 55.3628 18.896C55.3628 19.1453 55.2608 19.372 55.0568 19.576C54.8755 19.7573 54.6488 19.848 54.3768 19.848ZM68.0095 22.5V20.8H67.8735C66.8535 20.596 66.2982 19.814 66.2075 18.454L66.1735 17.4C66.1735 16.38 66.3095 15.224 66.5815 13.932C66.9442 12.232 67.1822 11.2687 67.2955 11.042C67.4995 10.1807 67.6015 9.50067 67.6015 9.002C67.6015 8.34467 67.4428 8.016 67.1255 8.016C66.6948 8.016 66.2075 8.87733 65.6635 10.6C65.3235 11.6427 64.9835 13.0933 64.6435 14.952C64.4848 15.768 64.4055 16.5613 64.4055 17.332C64.4055 18.216 64.5415 19.236 64.8135 20.392C65.1082 21.548 66.1282 22.2507 67.8735 22.5H68.0095ZM73.7499 20.8C73.6592 20.8 73.5686 20.7547 73.4779 20.664C73.2739 20.4827 73.1719 20.3013 73.1719 20.12C73.1719 19.8707 73.3079 19.5987 73.5799 19.304C73.8746 19.0093 74.1012 18.8053 74.2599 18.692C74.2826 18.8507 74.2939 19.032 74.2939 19.236C74.2939 19.5307 74.2486 19.8707 74.1579 20.256C74.0899 20.6187 73.9539 20.8 73.7499 20.8ZM68.1399 22.5C69.8172 22.4773 71.0412 22.0693 71.8119 21.276C72.2652 22.0693 72.9226 22.466 73.7839 22.466L74.2599 22.432C75.4386 22.0013 76.0279 20.9473 76.0279 19.27C76.0279 18.8847 75.9712 18.5107 75.8579 18.148C75.5632 17.332 75.1099 16.924 74.4979 16.924C73.5912 16.924 72.7412 17.502 71.9479 18.658C71.5626 19.202 71.0752 19.7007 70.4859 20.154C69.9192 20.5847 69.0692 20.8 67.9359 20.8C67.8679 21.0267 67.8339 21.31 67.8339 21.65C67.8339 21.99 67.8679 22.2733 67.9359 22.5H68.1399ZM79.5647 18.624C78.6354 20.528 77.7627 22.1033 76.9467 23.35C76.4027 24.1433 75.768 24.9593 75.0427 25.798C73.6147 27.498 73.082 28.5067 73.4447 28.824C73.7847 29.1413 74.5554 28.7107 75.7567 27.532C76.7994 26.4213 77.6607 25.3447 78.3407 24.302C79.2247 22.9647 80.1314 21.3327 81.0607 19.406C81.174 19.1793 81.1967 18.964 81.1287 18.76C81.0607 18.5333 80.9134 18.3633 80.6867 18.25C80.4827 18.1593 80.2674 18.148 80.0407 18.216C79.8367 18.284 79.678 18.42 79.5647 18.624ZM82.6704 22.466C83.1917 22.466 83.7131 21.786 84.2344 20.426C84.7784 19.066 85.0957 17.6833 85.1864 16.278C85.2317 15.4847 85.2544 14.68 85.2544 13.864C85.2544 13.252 85.2431 12.6173 85.2204 11.96C85.1977 11.3027 85.1864 10.6113 85.1864 9.886C85.1864 9.65933 85.1071 9.46667 84.9484 9.308C84.7897 9.14933 84.5857 9.07 84.3364 9.07C84.1097 9.07 83.9171 9.14933 83.7584 9.308C83.5997 9.46667 83.5204 9.65933 83.5204 9.886L83.5544 11.926L83.5884 13.49C83.5884 14.2833 83.5544 15.2013 83.4864 16.244C83.4411 17.264 83.2031 18.3973 82.7724 19.644C82.4324 20.6187 82.2624 21.3327 82.2624 21.786C82.2624 21.922 82.2737 22.0353 82.2964 22.126C82.3644 22.3527 82.4891 22.466 82.6704 22.466ZM81.5824 7.506C81.9451 7.506 82.4211 7.10933 83.0104 6.316C83.3504 5.79467 83.6791 5.534 83.9964 5.534C84.2457 5.534 84.5971 5.61333 85.0504 5.772C85.7984 6.06667 86.5011 6.214 87.1584 6.214C88.1104 6.214 88.8697 5.78333 89.4364 4.922C90.0031 4.06067 90.3317 2.916 90.4224 1.488V1.386C90.4224 1.182 90.3431 1.00067 90.1844 0.841999C90.0484 0.660665 89.8444 0.569999 89.5724 0.569999C89.3684 0.569999 89.1871 0.637998 89.0284 0.773998C88.8697 0.909999 88.7791 1.09133 88.7564 1.318C88.7111 1.83933 88.6317 2.372 88.5184 2.916C88.2691 3.98133 87.7591 4.514 86.9884 4.514C86.6937 4.514 86.1611 4.38933 85.3904 4.14C84.6424 3.868 84.0417 3.732 83.5884 3.732C83.4297 3.732 83.1917 3.766 82.8744 3.834C82.5797 3.87933 82.1377 4.42333 81.5484 5.466C81.2311 6.05533 81.0724 6.52 81.0724 6.86C81.0724 7.10933 81.1404 7.27933 81.2764 7.37C81.3897 7.46067 81.4917 7.506 81.5824 7.506Z" fill="#C86628"/>
</svg>
