<svg width="181" height="72" viewBox="0 0 181 72" fill="none" xmlns="http://www.w3.org/2000/svg">
<rect opacity="0.1" x="20" y="12" width="159" height="52" fill="url(#paint0_linear_108_1049)"/>
<rect x="179" y="12" width="2" height="52" fill="#C86628"/>
<path d="M55.6246 37.802C55.7113 38.218 55.7113 38.66 55.6246 39.128C55.538 39.5787 55.3646 39.882 55.1046 40.038C54.862 40.194 54.5153 40.0207 54.0646 39.518C53.5966 38.9633 53.198 38.7293 52.8686 38.816C52.5566 38.8853 52.2273 39.2233 51.8806 39.83C51.8286 39.934 51.768 40.0207 51.6986 40.09C51.6466 40.142 51.56 40.1853 51.4386 40.22C51.3173 40.2373 51.1353 40.2373 50.8926 40.22C50.806 39.596 50.6846 38.9807 50.5286 38.374C50.4766 38.2007 50.3726 38.0707 50.2166 37.984C50.0606 37.8973 49.896 37.8713 49.7226 37.906C49.5493 37.958 49.4193 38.062 49.3326 38.218C49.246 38.374 49.2286 38.5387 49.2806 38.712C49.8353 40.5147 49.7833 42.2913 49.1246 44.042C48.5526 45.2727 47.66 46.1913 46.4466 46.798C45.2506 47.4047 43.994 47.6647 42.6766 47.578C41.3593 47.4913 40.25 47.0233 39.3486 46.174C38.7073 45.4113 38.6813 44.614 39.2706 43.782C39.9813 42.7767 40.822 41.884 41.7926 41.104C42.85 40.1507 43.2486 39.5353 42.9886 39.258C42.746 38.9807 42.1046 39.232 41.0646 40.012C39.9726 40.8613 39.0106 41.8927 38.1786 43.106C37.7453 43.782 37.5373 44.458 37.5546 45.134C37.572 45.8273 37.8666 46.4773 38.4386 47.084C39.5653 48.1413 40.926 48.7307 42.5206 48.852C44.1153 48.9733 45.632 48.6613 47.0706 47.916C48.5266 47.1707 49.6013 46.0527 50.2946 44.562C50.7106 43.574 50.9273 42.56 50.9446 41.52C51.586 41.5373 52.028 41.468 52.2706 41.312C52.5306 41.1733 52.7473 40.9307 52.9206 40.584C52.9726 40.5147 53.0073 40.4627 53.0246 40.428C53.042 40.376 53.0593 40.35 53.0766 40.35C53.094 40.35 53.1113 40.376 53.1286 40.428L53.2586 40.558C53.7786 41.13 54.342 41.3987 54.9486 41.364C55.5726 41.3467 56.0926 41.026 56.5086 40.402C56.9766 40.8007 57.4706 41 57.9906 41H58.0426V39.7H57.9906C57.8 39.7 57.6093 39.6307 57.4186 39.492C57.228 39.3533 57.072 39.1973 56.9506 39.024C57.0026 38.5213 56.9853 38.036 56.8986 37.568C56.864 37.3947 56.7773 37.2647 56.6386 37.178C56.5 37.074 56.344 37.0307 56.1706 37.048C55.98 37.0827 55.8326 37.178 55.7286 37.334C55.642 37.4727 55.6073 37.6287 55.6246 37.802ZM55.5206 32.056C55.3473 31.796 55.0613 31.7353 54.6626 31.874C54.264 31.9953 53.8393 32.1773 53.3886 32.42C52.99 32.6453 52.6433 32.81 52.3486 32.914C50.4593 33.5207 49.3586 33.98 49.0466 34.292C48.7346 34.604 48.9513 34.7513 49.6966 34.734C50.442 34.7167 51.4473 34.5173 52.7126 34.136C53.7353 33.8067 54.5846 33.4167 55.2606 32.966C55.4166 32.8793 55.5206 32.7493 55.5726 32.576C55.6246 32.4027 55.6073 32.2293 55.5206 32.056ZM51.5946 32.368C51.3866 32.3507 51.222 32.264 51.1006 32.108C50.9793 31.952 50.9273 31.77 50.9446 31.562C50.962 31.354 51.04 31.1893 51.1786 31.068C51.3346 30.9467 51.5166 30.8947 51.7246 30.912C51.9326 30.9293 52.0973 31.016 52.2186 31.172C52.3573 31.3107 52.418 31.484 52.4006 31.692C52.3833 31.9 52.2966 32.0733 52.1406 32.212C51.9846 32.3333 51.8026 32.3853 51.5946 32.368ZM66.1731 41V39.7H65.9131C64.5611 39.7 63.8851 39.31 63.8851 38.53C63.8851 38.3047 63.9458 38.0447 64.0671 37.75C64.2751 37.4207 64.4831 37.0567 64.6911 36.658C64.9511 36.6233 65.2025 36.58 65.4451 36.528C65.6185 36.4933 65.7485 36.4153 65.8351 36.294C65.9218 36.1727 65.9651 36.0513 65.9651 35.93C65.9651 35.6873 65.8611 35.4967 65.6531 35.358C65.5491 35.2887 65.4451 35.254 65.3411 35.254L65.1851 35.28C64.2838 35.436 63.3738 35.514 62.4551 35.514C62.0391 35.514 61.6145 35.4967 61.1811 35.462L60.6091 35.436C60.1238 35.436 59.7338 35.5227 59.4391 35.696C59.1618 35.8693 58.8585 36.4327 58.5291 37.386L58.5031 37.594C58.5031 37.698 58.5291 37.8107 58.5811 37.932C58.7025 38.14 58.8845 38.244 59.1271 38.244C59.4391 38.244 59.6471 38.1053 59.7511 37.828C59.8898 37.464 60.0198 37.1953 60.1411 37.022C60.2625 36.8313 60.4705 36.736 60.7651 36.736L61.1291 36.762C61.5625 36.7793 62.2211 36.788 63.1051 36.788C62.4811 37.984 61.8571 38.7727 61.2331 39.154C60.6091 39.518 59.5258 39.7 57.9831 39.7C57.8965 39.856 57.8531 40.0293 57.8531 40.22C57.8531 40.5493 57.8965 40.8093 57.9831 41C59.3005 41 60.3058 40.8873 60.9991 40.662C61.7098 40.4367 62.3165 40.0553 62.8191 39.518C63.2698 40.506 64.3878 41 66.1731 41ZM61.5191 32.888C61.2591 32.888 61.0338 32.8013 60.8431 32.628C60.6698 32.4373 60.5831 32.212 60.5831 31.952C60.5831 31.692 60.6698 31.4753 60.8431 31.302C61.0338 31.1113 61.2591 31.016 61.5191 31.016C61.7791 31.016 62.0045 31.1113 62.1951 31.302C62.3858 31.4753 62.4811 31.692 62.4811 31.952C62.4811 32.212 62.3858 32.4373 62.1951 32.628C62.0045 32.8013 61.7791 32.888 61.5191 32.888ZM66.1075 41H66.3935C67.2428 40.948 67.9795 40.6793 68.6035 40.194C69.0195 40.766 69.6002 41.0347 70.3455 41H70.5535V39.7H70.3455C69.8948 39.6653 69.6002 39.57 69.4615 39.414C69.3402 39.2407 69.2795 38.8853 69.2795 38.348C69.2795 37.7933 69.2795 37.386 69.2795 37.126C69.2622 36.9527 69.1928 36.814 69.0715 36.71C68.9502 36.606 68.8028 36.554 68.6295 36.554C68.4562 36.5713 68.3175 36.6407 68.2135 36.762C68.1095 36.866 68.0575 37.0047 68.0575 37.178C68.1268 38.3047 67.9882 39.0067 67.6415 39.284C67.3122 39.544 66.8962 39.6827 66.3935 39.7H66.1075C65.8475 40.2027 65.8475 40.636 66.1075 41ZM67.0695 45.238C67.2602 45.238 67.4248 45.16 67.5635 45.004C67.7195 44.8653 67.7975 44.692 67.7975 44.484C67.7975 44.276 67.7195 44.1027 67.5635 43.964C67.4248 43.8253 67.2602 43.756 67.0695 43.756C66.8615 43.756 66.6795 43.8253 66.5235 43.964C66.3848 44.1027 66.3155 44.276 66.3155 44.484C66.3155 44.692 66.3848 44.8653 66.5235 45.004C66.6795 45.16 66.8615 45.238 67.0695 45.238ZM70.6047 41C71.6447 41 72.4247 40.8007 72.9447 40.402C73.4647 40.0033 73.8027 39.4573 73.9587 38.764C74.028 38.4 74.0627 38.0013 74.0627 37.568C74.0627 36.632 73.9587 36.086 73.7507 35.93C73.6294 35.8433 73.4994 35.8 73.3607 35.8C73.1354 35.8 72.9707 35.8693 72.8667 36.008C72.7627 36.1467 72.7107 36.3113 72.7107 36.502C72.7627 36.9007 72.7887 37.2733 72.7887 37.62C72.7887 37.8107 72.7714 38.0793 72.7367 38.426C72.65 39.2753 71.9134 39.7 70.5267 39.7C70.4747 39.804 70.4487 39.9513 70.4487 40.142C70.4487 40.4887 70.4747 40.7747 70.5267 41H70.6047ZM71.5667 34.422L72.3467 34.24C73.6294 34.0667 74.262 33.8327 74.2447 33.538C74.2274 33.2433 73.5687 33.148 72.2687 33.252L71.4627 33.408C71.3067 33.4427 71.1854 33.512 71.0987 33.616C71.0294 33.72 71.0034 33.8413 71.0207 33.98C71.038 34.1187 71.0987 34.2313 71.2027 34.318C71.3067 34.4047 71.428 34.4393 71.5667 34.422ZM73.8896 43.132C74.1496 43.132 74.479 43.08 74.8776 42.976C76.3683 42.4907 77.3996 41.832 77.9716 41L78.1016 40.818C78.2923 40.9393 78.7083 41 79.3496 41H79.4796V39.7C79.081 39.7 78.795 39.648 78.6216 39.544C78.4656 39.44 78.3183 39.2667 78.1796 39.024C77.8676 38.2613 77.2263 37.4293 76.2556 36.528C76.117 36.424 75.961 36.372 75.7876 36.372C75.6143 36.3893 75.467 36.4673 75.3456 36.606C75.2416 36.7273 75.1896 36.866 75.1896 37.022C75.1896 37.0393 75.1896 37.1 75.1896 37.204C75.207 37.2907 75.285 37.3947 75.4236 37.516C76.3076 38.2613 76.8103 38.9027 76.9316 39.44L76.9576 39.544L76.9316 39.83C76.7583 40.6447 75.909 41.2947 74.3836 41.78C73.569 42.0747 73.1616 42.378 73.1616 42.69C73.1616 42.9847 73.4043 43.132 73.8896 43.132ZM76.1256 34.63C75.9176 34.63 75.7443 34.5607 75.6056 34.422C75.467 34.2833 75.3976 34.11 75.3976 33.902C75.3976 33.694 75.467 33.5207 75.6056 33.382C75.7443 33.2433 75.9176 33.174 76.1256 33.174C76.3336 33.174 76.507 33.2433 76.6456 33.382C76.7843 33.5207 76.8536 33.694 76.8536 33.902C76.8536 34.11 76.7843 34.2833 76.6456 34.422C76.507 34.5607 76.3336 34.63 76.1256 34.63ZM79.4902 41C81.3275 41 82.3849 40.09 82.6622 38.27C82.7315 37.802 82.7662 37.334 82.7662 36.866C82.7662 35.93 82.6362 34.8207 82.3762 33.538L82.2202 32.446C82.2029 32.2553 82.1335 32.108 82.0122 32.004C81.8909 31.9 81.7522 31.848 81.5962 31.848C81.3882 31.848 81.2235 31.9173 81.1022 32.056C80.9809 32.1947 80.9202 32.3507 80.9202 32.524C81.3362 34.4307 81.5442 35.8347 81.5442 36.736C81.5442 36.892 81.5355 37.1867 81.5182 37.62C81.5182 38.0533 81.3622 38.5127 81.0502 38.998C80.7555 39.466 80.2095 39.7 79.4122 39.7C79.2389 39.8387 79.1522 40.0293 79.1522 40.272C79.1522 40.2893 79.1609 40.3673 79.1782 40.506C79.1782 40.6447 79.2562 40.8093 79.4122 41H79.4902ZM86.7221 39.544C86.7741 39.3707 86.8781 39.18 87.0341 38.972C87.2074 38.764 87.3807 38.608 87.5541 38.504C87.7447 38.3827 87.9007 38.4 88.0221 38.556C88.1434 38.6947 88.1867 39.0413 88.1521 39.596C87.8401 39.6133 87.5541 39.622 87.2941 39.622C87.0341 39.6047 86.8434 39.5787 86.7221 39.544ZM87.8661 40.922C87.5367 41.8927 86.8347 42.7507 85.7601 43.496C84.7027 44.1893 84.0441 44.692 83.7841 45.004C83.5241 45.316 83.5327 45.4893 83.8101 45.524C84.0701 45.5587 84.4514 45.4807 84.9541 45.29C85.4741 45.1167 85.9767 44.8827 86.4621 44.588C87.2941 44.0333 87.9441 43.3833 88.4121 42.638C88.8974 41.91 89.2094 41.182 89.3481 40.454C89.4694 39.8473 89.4694 39.1887 89.3481 38.478C89.2267 37.7673 88.8281 37.308 88.1521 37.1C87.5801 37.0133 87.0167 37.2127 86.4621 37.698C85.9247 38.1833 85.5867 38.712 85.4481 39.284C85.3614 39.7867 85.4394 40.1593 85.6821 40.402C85.9421 40.6273 86.2714 40.7747 86.6701 40.844C87.0861 40.896 87.4847 40.922 87.8661 40.922ZM107.562 41.936C107.545 41.52 107.562 41.1127 107.614 40.714C109.66 40.5753 111.48 39.856 113.074 38.556C113.594 38.088 113.941 37.5853 114.114 37.048C114.392 35.8347 114.028 35.0807 113.022 34.786C112.017 34.474 110.856 34.6907 109.538 35.436C108.221 36.1813 107.233 37.5247 106.574 39.466C106.089 39.466 105.586 39.4487 105.066 39.414C105.014 38.7207 104.928 38.036 104.806 37.36C104.772 37.1867 104.685 37.048 104.546 36.944C104.408 36.84 104.252 36.8053 104.078 36.84C103.888 36.8747 103.74 36.9613 103.636 37.1C103.55 37.2387 103.515 37.3947 103.532 37.568C103.896 39.3533 103.853 41.0347 103.402 42.612C102.952 44.1893 101.808 45.3593 99.9705 46.122C99.1905 46.4167 98.3585 46.538 97.4745 46.486C96.5905 46.4513 95.8018 46.1913 95.1085 45.706C94.3632 45.134 93.9732 44.4407 93.9385 43.626C93.9212 42.8287 94.1205 42.0227 94.5365 41.208C94.9525 40.4107 95.4378 39.7347 95.9925 39.18C97.0152 38.0707 97.3358 37.438 96.9545 37.282C96.5732 37.126 95.9492 37.4553 95.0825 38.27C94.3198 39.0327 93.6958 39.934 93.2105 40.974C92.7425 41.9967 92.5605 43.0193 92.6645 44.042C92.7858 45.082 93.3492 45.9833 94.3545 46.746C95.2385 47.3527 96.2178 47.6907 97.2925 47.76C98.3845 47.8467 99.4245 47.708 100.412 47.344C101.626 46.9107 102.666 46.148 103.532 45.056C104.416 43.964 104.936 42.5167 105.092 40.714C105.508 40.7487 105.916 40.766 106.314 40.766C106.262 41.182 106.245 41.598 106.262 42.014C106.28 42.1873 106.349 42.3347 106.47 42.456C106.609 42.5773 106.765 42.6293 106.938 42.612C107.129 42.612 107.276 42.5427 107.38 42.404C107.502 42.2827 107.562 42.1267 107.562 41.936ZM107.978 39.362C108.325 38.4607 108.845 37.698 109.538 37.074C110.249 36.4327 111.098 36.0427 112.086 35.904C112.52 35.9213 112.78 36.0253 112.866 36.216C112.953 36.4067 112.927 36.632 112.788 36.892C112.65 37.152 112.468 37.3773 112.242 37.568C110.994 38.608 109.573 39.206 107.978 39.362ZM117.707 41V39.7H117.603C116.823 39.544 116.399 38.946 116.329 37.906L116.303 37.1C116.303 36.32 116.407 35.436 116.615 34.448C116.893 33.148 117.075 32.4113 117.161 32.238C117.317 31.5793 117.395 31.0593 117.395 30.678C117.395 30.1753 117.274 29.924 117.031 29.924C116.702 29.924 116.329 30.5827 115.913 31.9C115.653 32.6973 115.393 33.8067 115.133 35.228C115.012 35.852 114.951 36.4587 114.951 37.048C114.951 37.724 115.055 38.504 115.263 39.388C115.489 40.272 116.269 40.8093 117.603 41H117.707ZM117.703 41C119.939 41 122.062 40.584 124.073 39.752C124.732 39.5267 125.373 39.1367 125.997 38.582C126.621 38.0273 126.933 37.438 126.933 36.814C126.933 36.2073 126.378 35.6787 125.269 35.228C124.437 34.9507 123.605 34.812 122.773 34.812C122.08 34.812 121.386 34.9073 120.693 35.098C119.636 35.41 118.934 35.878 118.587 36.502C118.518 36.6407 118.483 36.788 118.483 36.944C118.483 37.464 118.96 38.0447 119.913 38.686C120.017 38.738 120.112 38.764 120.199 38.764C120.459 38.764 120.658 38.66 120.797 38.452C120.849 38.348 120.875 38.244 120.875 38.14C120.875 37.8973 120.771 37.7067 120.563 37.568C120.147 37.2907 119.939 37.0567 119.939 36.866C119.939 36.814 119.991 36.7273 120.095 36.606C120.199 36.4673 120.502 36.3547 121.005 36.268C121.525 36.164 122.097 36.112 122.721 36.112C122.808 36.112 123.059 36.1207 123.475 36.138C123.891 36.1553 124.385 36.268 124.957 36.476C125.338 36.6667 125.529 36.866 125.529 37.074C125.529 37.386 125.226 37.7067 124.619 38.036C124.186 38.2787 123.839 38.452 123.579 38.556C121.724 39.3187 119.748 39.7 117.651 39.7C117.547 39.8733 117.495 40.09 117.495 40.35C117.495 40.5927 117.547 40.8093 117.651 41H117.703ZM121.187 32.576C120.927 32.576 120.702 32.4893 120.511 32.316C120.338 32.1253 120.251 31.9 120.251 31.64C120.251 31.38 120.338 31.1633 120.511 30.99C120.702 30.7993 120.927 30.704 121.187 30.704C121.447 30.704 121.672 30.7993 121.863 30.99C122.054 31.1633 122.149 31.38 122.149 31.64C122.149 31.9 122.054 32.1253 121.863 32.316C121.672 32.4893 121.447 32.576 121.187 32.576ZM133.028 46.486C133.634 46.486 134.345 46.356 135.16 46.096C135.974 45.836 136.728 45.4807 137.422 45.03C138.67 44.25 139.554 43.314 140.074 42.222C140.247 41.858 140.334 41.4853 140.334 41.104C140.334 40.3413 139.996 39.5613 139.32 38.764C138.99 38.4173 138.826 38.1313 138.826 37.906C138.826 37.8887 138.834 37.828 138.852 37.724C138.869 37.6027 139.042 37.3427 139.372 36.944L139.476 36.814C140.256 35.8433 141.07 34.916 141.92 34.032C142.11 33.8413 142.292 33.642 142.466 33.434C142.57 33.3127 142.622 33.1827 142.622 33.044V32.888C142.622 32.784 142.552 32.6713 142.414 32.55C142.292 32.4287 142.154 32.368 141.998 32.368H141.842C141.755 32.368 141.634 32.4547 141.478 32.628C141.322 32.784 141.148 32.9573 140.958 33.148C140.091 34.0667 139.259 35.02 138.462 36.008C137.838 36.7707 137.526 37.4293 137.526 37.984C137.526 38.4693 137.803 39.0153 138.358 39.622C138.808 40.142 139.034 40.6447 139.034 41.13C139.034 41.442 138.869 41.8493 138.54 42.352C138.21 42.872 137.604 43.4007 136.72 43.938C136.286 44.2153 135.706 44.4927 134.978 44.77C134.25 45.0473 133.548 45.186 132.872 45.186C132.82 45.186 132.603 45.1773 132.222 45.16C131.858 45.16 131.52 44.8393 131.208 44.198C131.069 43.9207 131 43.5653 131 43.132C131 42.196 131.346 40.896 132.04 39.232C132.49 38.088 132.716 37.308 132.716 36.892C132.716 36.6493 132.638 36.528 132.482 36.528C132.1 36.528 131.554 37.2647 130.844 38.738C130.081 40.5927 129.7 42.092 129.7 43.236C129.7 43.8253 129.804 44.3193 130.012 44.718C130.462 45.6713 131.138 46.226 132.04 46.382C132.369 46.4513 132.698 46.486 133.028 46.486ZM143.188 40.974C143.587 40.974 143.986 40.454 144.384 39.414C144.8 38.374 145.043 37.3167 145.112 36.242C145.147 35.6353 145.164 35.02 145.164 34.396C145.164 33.928 145.156 33.4427 145.138 32.94C145.121 32.4373 145.112 31.9087 145.112 31.354C145.112 31.1807 145.052 31.0333 144.93 30.912C144.809 30.7907 144.653 30.73 144.462 30.73C144.289 30.73 144.142 30.7907 144.02 30.912C143.899 31.0333 143.838 31.1807 143.838 31.354L143.864 32.914L143.89 34.11C143.89 34.7167 143.864 35.4187 143.812 36.216C143.778 36.996 143.596 37.8627 143.266 38.816C143.006 39.5613 142.876 40.1073 142.876 40.454C142.876 40.558 142.885 40.6447 142.902 40.714C142.954 40.8873 143.05 40.974 143.188 40.974ZM145.339 43.132C145.599 43.132 145.928 43.08 146.327 42.976C147.818 42.4907 148.849 41.832 149.421 41L149.551 40.818C149.742 40.9393 150.158 41 150.799 41H150.929V39.7C150.53 39.7 150.244 39.648 150.071 39.544C149.915 39.44 149.768 39.2667 149.629 39.024C149.317 38.2613 148.676 37.4293 147.705 36.528C147.566 36.424 147.41 36.372 147.237 36.372C147.064 36.3893 146.916 36.4673 146.795 36.606C146.691 36.7273 146.639 36.866 146.639 37.022C146.639 37.0393 146.639 37.1 146.639 37.204C146.656 37.2907 146.734 37.3947 146.873 37.516C147.757 38.2613 148.26 38.9027 148.381 39.44L148.407 39.544L148.381 39.83C148.208 40.6447 147.358 41.2947 145.833 41.78C145.018 42.0747 144.611 42.378 144.611 42.69C144.611 42.9847 144.854 43.132 145.339 43.132ZM155.099 41.858C155.29 41.858 155.446 41.7973 155.567 41.676C155.689 41.572 155.758 41.4247 155.775 41.234C155.81 40.558 155.905 39.9167 156.061 39.31C157.829 39.1713 159.415 38.556 160.819 37.464C161.929 36.5107 162.483 35.592 162.483 34.708C162.483 34.24 162.301 33.8847 161.937 33.642C161.712 33.5033 161.426 33.434 161.079 33.434C160.611 33.434 160.031 33.5553 159.337 33.798C157.275 34.5953 155.862 36.0167 155.099 38.062H154.683C154.267 38.062 153.851 38.0447 153.435 38.01C153.539 37.5073 153.591 37.178 153.591 37.022C153.591 36.866 153.531 36.7187 153.409 36.58C153.305 36.4413 153.149 36.372 152.941 36.372C152.803 36.372 152.664 36.424 152.525 36.528C152.404 36.6147 152.335 36.7533 152.317 36.944C152.248 37.568 152.092 38.2093 151.849 38.868C151.624 39.4227 151.303 39.7 150.887 39.7C150.783 39.8733 150.731 40.0813 150.731 40.324C150.731 40.584 150.783 40.8093 150.887 41H150.991C151.979 40.9133 152.655 40.376 153.019 39.388L153.071 39.284C153.626 39.336 154.172 39.362 154.709 39.362C154.588 39.9513 154.51 40.558 154.475 41.182C154.475 41.3727 154.536 41.5287 154.657 41.65C154.779 41.7713 154.926 41.8407 155.099 41.858ZM156.555 37.932C157.249 36.528 158.332 35.5487 159.805 34.994C160.325 34.8033 160.698 34.708 160.923 34.708C161.131 34.708 161.235 34.7947 161.235 34.968C161.235 35.2973 160.828 35.8 160.013 36.476C159.008 37.256 157.899 37.7327 156.685 37.906C156.651 37.9233 156.607 37.932 156.555 37.932Z" fill="#C86628"/>
<path d="M21.4476 20.5875L21.4496 20.5859C22.6577 19.64 24.506 19.0409 27.7147 18.578C29.0375 18.3871 29.4528 17.1873 29.4526 16.488C29.4524 15.7886 29.0369 14.5902 27.7155 14.3986C24.0558 13.868 22.1604 13.1559 20.9968 11.9931C19.8201 10.8173 19.1171 8.90731 18.5821 5.16419C18.3949 3.85461 17.2151 3.42493 16.5008 3.42571C15.7866 3.4265 14.609 3.85828 14.4229 5.16637C13.8259 9.36184 13.0097 11.2778 11.5274 12.4371C10.332 13.3699 8.47134 13.9653 5.23909 14.4278C3.92529 14.6158 3.49974 15.8019 3.49949 16.5108C3.49925 17.2198 3.9243 18.4071 5.23924 18.5948C8.27597 19.0283 10.104 19.578 11.3084 20.4217L11.3125 20.4246C12.9285 21.5485 13.7935 23.4388 14.4183 27.8051C14.606 29.1169 15.7894 29.5441 16.5002 29.5442C17.211 29.5442 18.3947 29.1171 18.5822 27.8049C19.1784 23.6331 19.9914 21.7236 21.4476 20.5875Z" fill="#C86628" stroke="#FCFCFC" stroke-width="3"/>
<defs>
<linearGradient id="paint0_linear_108_1049" x1="179" y1="38" x2="20" y2="38" gradientUnits="userSpaceOnUse">
<stop stop-color="#C86628"/>
<stop offset="0.881983" stop-color="#C86628" stop-opacity="0"/>
</linearGradient>
</defs>
</svg>
