<svg width="93" height="103" viewBox="0 0 93 103" fill="none" xmlns="http://www.w3.org/2000/svg">
<g opacity="0.8" clip-path="url(#clip0_108_1040)">
<path d="M50.6287 86.3301C50.1117 86.3774 49.9371 86.4822 49.7345 86.4604C36.6962 82.0224 26.7264 73.8544 20.8453 61.2006C19.3523 58.0089 18.7117 54.4969 18.8394 50.8824C19.0464 43.1326 24.0302 36.7232 31.4144 34.6341C35.2568 33.5233 39.1266 33.137 42.9955 34.5442C43.651 36.3261 44.2437 38.1218 44.9972 39.7493C46.239 42.3985 48.1867 44.3611 51.071 45.1878C53.194 45.8499 55.0802 45.4351 55.8632 44.2002C56.8909 42.5794 56.5007 40.8056 55.3629 39.5283C53.7853 37.7499 51.9841 36.1536 50.1479 34.6979C48.954 33.765 47.4876 33.0913 46.1469 32.3899C45.6412 24.9962 51.6996 20.4757 60.4021 21.6831C60.8765 22.6414 61.3649 23.6631 61.9022 24.6075C63.9818 28.0687 66.9351 30.4078 71 30.9085C72.5575 31.0972 74.1711 30.9416 75.136 29.3346C75.8561 28.1136 75.4659 26.3397 74.0698 24.7872C71.8221 22.3592 68.9381 20.9347 65.9213 19.805C64.8528 19.4423 63.7843 19.0795 62.7297 18.7802C61.5487 7.41715 69.6918 -2.60948 80.3495 -0.304515C80.1054 -1.11425 80.015 -1.82494 79.6799 -2.14973C79.2681 -2.52405 78.5207 -2.62534 77.927 -2.62758C72.3599 -2.46577 67.5324 -0.739794 64.3096 4.08684C61.8699 7.67859 60.5754 11.6826 60.084 16.0413C60.0208 16.6529 59.9576 17.2646 59.8315 17.8901C59.8454 17.9534 59.7336 18.0444 59.5239 18.2898C58.9442 18.3509 58.2526 18.503 57.5331 18.5284C48.8157 19.0511 44.9162 22.2997 42.7599 31.076C41.9497 30.9885 41.0138 30.9287 40.1268 30.7918C34.9234 30.2094 30.0544 31.1475 25.5126 33.8733C18.1131 38.2903 14.4764 46.3295 15.8335 55.1964C16.5642 60.0169 18.3848 64.3984 21.0577 68.4596C27.5621 78.2532 36.2055 85.1854 47.603 88.4568C48.1756 88.6629 48.7972 88.7918 49.3699 88.9979C49.4467 89.0475 49.5374 89.1603 49.8096 89.499C47.7835 90.4759 45.7298 90.7284 43.69 91.0442C41.727 91.4096 39.6733 91.662 37.5078 92.0055C38.0587 93.6111 39.0783 94.051 40.2307 94.1961C41.5717 94.2996 42.9406 94.5298 44.212 94.3166C47.635 93.6966 51.1068 92.9993 54.523 92.0487C57.1847 91.264 57.6187 89.641 55.9364 87.6865C52.3276 83.5655 48.6558 79.4583 44.9841 75.3511C44.3768 74.6877 43.6716 74.1786 42.7849 73.4438C41.8969 75.1003 42.6228 76.0033 43.2719 76.8568C45.7848 79.8905 48.109 82.9658 50.6287 86.3301ZM72.8318 27.8489C68.3682 28.2329 65.0516 26.0401 63.9991 22.1538C67.3092 23.4183 70.4518 24.5203 72.8318 27.8489ZM53.7408 42.3424C49.8363 42.2714 47.5185 40.1246 47.0458 36.1772C49.8808 37.6789 52.3736 39.1231 53.7408 42.3424Z" fill="url(#paint0_linear_108_1040)"/>
</g>
<defs>
<linearGradient id="paint0_linear_108_1040" x1="79.6561" y1="-3.457" x2="61.9352" y2="90.5442" gradientUnits="userSpaceOnUse">
<stop stop-color="#C86628" stop-opacity="0"/>
<stop offset="1" stop-color="#C86628"/>
</linearGradient>
<clipPath id="clip0_108_1040">
<rect width="75" height="88" fill="white" transform="matrix(-0.976655 0.214815 0.214815 0.976655 73.2491 0)"/>
</clipPath>
</defs>
</svg>
