<svg width="24" height="48" viewBox="0 0 24 48" fill="none" xmlns="http://www.w3.org/2000/svg">
<rect x="0.5" y="0.5" width="23" height="47" rx="11.5" stroke="#212121"/>
<path fill-rule="evenodd" clip-rule="evenodd" d="M12 4.5C7.85786 4.5 4.5 7.85786 4.5 12C4.5 16.1421 7.85786 19.5 12 19.5C16.1421 19.5 19.5 16.1421 19.5 12C19.5 7.85786 16.1421 4.5 12 4.5ZM9.8637 10.1364C9.57081 9.84346 9.09594 9.84346 8.80304 10.1364C8.51015 10.4293 8.51015 10.9041 8.80304 11.197L10.9764 13.3704C11.5259 13.9199 12.4208 13.9199 12.9704 13.3704L15.1437 11.197C15.4366 10.9041 15.4366 10.4293 15.1437 10.1364C14.8508 9.84346 14.3759 9.84346 14.083 10.1364L11.9734 12.246L9.8637 10.1364Z" fill="#212121"/>
</svg>
